HIERARCHY
ROOT Model
{
	OFFSET 0 0 0
	CHANNELS 6 Xposition Yposition Zposition Zrotation Xrotation Yrotation
	JOINT Model1
	{
		OFFSET 0 -2.25479 2.99384
		CHANNELS 3 Zrotation Xrotation Yrotation
		JOINT Model2
		{
			OFFSET 12.111 0 0
			CHANNELS 3 Zrotation Xrotation Yrotation
			JOINT Model3
			{
				OFFSET 11.5502 0 0
				CHANNELS 3 Zrotation Xrotation Yrotation
				JOINT Model4
				{
					OFFSET 11.781 0 0
					CHANNELS 3 Zrotation Xrotation Yrotation
					JOINT Model5
					{
						OFFSET 20.0601 0 0
						CHANNELS 3 Zrotation Xrotation Yrotation
						JOINT Model6
						{
							OFFSET 11.1962 0 0
							CHANNELS 3 Zrotation Xrotation Yrotation
							End Site
							{
								OFFSET 0 0 0
							}
						}
					}
					JOINT Model7
					{
						OFFSET 10.8223 0.417534 3.51114
						CHANNELS 3 Zrotation Xrotation Yrotation
						JOINT Model8
						{
							OFFSET -6.07944 0 0
							CHANNELS 3 Zrotation Xrotation Yrotation
							JOINT Model9
							{
								OFFSET -0.277405 10.39 -0.051239
								CHANNELS 3 Zrotation Xrotation Yrotation
								JOINT Model10
								{
									OFFSET -3.43909 -0.282043 1.86679
									CHANNELS 3 Zrotation Xrotation Yrotation
									JOINT Model11
									{
										OFFSET 13.0269 0 0
										CHANNELS 3 Zrotation Xrotation Yrotation
										JOINT Model12
										{
											OFFSET 10.8866 0 0
											CHANNELS 3 Zrotation Xrotation Yrotation
											JOINT Model13
											{
												OFFSET 16.7317 0 0
												CHANNELS 3 Zrotation Xrotation Yrotation
												JOINT Model14
												{
													OFFSET 11.8292 0 0
													CHANNELS 3 Zrotation Xrotation Yrotation
													JOINT Model15
													{
														OFFSET 4.82751 -3.73566 -0.836517
														CHANNELS 3 Zrotation Xrotation Yrotation
														JOINT Model16
														{
															OFFSET 3.75311 -0.0582886 -0.0186462
															CHANNELS 3 Zrotation Xrotation Yrotation
															JOINT Model17
															{
																OFFSET 2.88689 0.0192337 0.014801
																CHANNELS 3 Zrotation Xrotation Yrotation
																End Site
																{
																	OFFSET 0 0 0
																}
															}
														}
													}
													JOINT Model18
													{
														OFFSET 9.72197 -3.06458 0.23877
														CHANNELS 3 Zrotation Xrotation Yrotation
														JOINT Model19
														{
															OFFSET 4.61131 0 0
															CHANNELS 3 Zrotation Xrotation Yrotation
															JOINT Model20
															{
																OFFSET 2.8969 -7.62939e-006 0
																CHANNELS 3 Zrotation Xrotation Yrotation
																End Site
																{
																	OFFSET 0 0 0
																}
															}
														}
													}
													JOINT Model21
													{
														OFFSET 9.54431 -0.745064 0.588928
														CHANNELS 3 Zrotation Xrotation Yrotation
														JOINT Model22
														{
															OFFSET 5.33978 0 0
															CHANNELS 3 Zrotation Xrotation Yrotation
															JOINT Model23
															{
																OFFSET 3.03619 7.62939e-006 0
																CHANNELS 3 Zrotation Xrotation Yrotation
																End Site
																{
																	OFFSET 0 0 0
																}
															}
														}
													}
													JOINT Model24
													{
														OFFSET 9.47758 1.51286 0.485107
														CHANNELS 3 Zrotation Xrotation Yrotation
														JOINT Model25
														{
															OFFSET 4.96136 7.62939e-006 0
															CHANNELS 3 Zrotation Xrotation Yrotation
															JOINT Model26
															{
																OFFSET 2.51965 0 0
																CHANNELS 3 Zrotation Xrotation Yrotation
																End Site
																{
																	OFFSET 0 0 0
																}
															}
														}
													}
													JOINT Model27
													{
														OFFSET 9.34247 3.34117 -0.239288
														CHANNELS 3 Zrotation Xrotation Yrotation
														JOINT Model28
														{
															OFFSET 3.28259 2.28882e-005 0
															CHANNELS 3 Zrotation Xrotation Yrotation
															JOINT Model29
															{
																OFFSET 2.1292 0 0
																CHANNELS 3 Zrotation Xrotation Yrotation
																End Site
																{
																	OFFSET 0 0 0
																}
															}
														}
													}
												}
											}
										}
									}
								}
							}
						}
					}
					JOINT Model30
					{
						OFFSET 10.8223 0.4179 -3.51108
						CHANNELS 3 Zrotation Xrotation Yrotation
						JOINT Model31
						{
							OFFSET 6.07944 0 0
							CHANNELS 3 Zrotation Xrotation Yrotation
							JOINT Model32
							{
								OFFSET 0.277405 -10.39 0.051239
								CHANNELS 3 Zrotation Xrotation Yrotation
								JOINT Model33
								{
									OFFSET 3.43909 0.282043 -1.86679
									CHANNELS 3 Zrotation Xrotation Yrotation
									JOINT Model34
									{
										OFFSET -13.0269 0 0
										CHANNELS 3 Zrotation Xrotation Yrotation
										JOINT Model35
										{
											OFFSET -10.8866 0 0
											CHANNELS 3 Zrotation Xrotation Yrotation
											JOINT Model36
											{
												OFFSET -16.7317 0 0
												CHANNELS 3 Zrotation Xrotation Yrotation
												JOINT Model37
												{
													OFFSET -11.8292 0 0
													CHANNELS 3 Zrotation Xrotation Yrotation
													JOINT Model38
													{
														OFFSET -4.82751 3.73566 0.836517
														CHANNELS 3 Zrotation Xrotation Yrotation
														JOINT Model39
														{
															OFFSET -3.75311 0.0582886 0.0186462
															CHANNELS 3 Zrotation Xrotation Yrotation
															JOINT Model40
															{
																OFFSET -2.88687 -0.0192337 -0.014801
																CHANNELS 3 Zrotation Xrotation Yrotation
																End Site
																{
																	OFFSET 0 0 0
																}
															}
														}
													}
													JOINT Model41
													{
														OFFSET -9.72198 3.06459 -0.23877
														CHANNELS 3 Zrotation Xrotation Yrotation
														JOINT Model42
														{
															OFFSET -4.6113 0 0
															CHANNELS 3 Zrotation Xrotation Yrotation
															JOINT Model43
															{
																OFFSET -2.89691 0 0
																CHANNELS 3 Zrotation Xrotation Yrotation
																End Site
																{
																	OFFSET 0 0 0
																}
															}
														}
													}
													JOINT Model44
													{
														OFFSET -9.54431 0.745064 -0.588928
														CHANNELS 3 Zrotation Xrotation Yrotation
														JOINT Model45
														{
															OFFSET -5.33978 0 0
															CHANNELS 3 Zrotation Xrotation Yrotation
															JOINT Model46
															{
																OFFSET -3.03619 -1.52588e-005 0
																CHANNELS 3 Zrotation Xrotation Yrotation
																End Site
																{
																	OFFSET 0 0 0
																}
															}
														}
													}
													JOINT Model47
													{
														OFFSET -9.4776 -1.51286 -0.485107
														CHANNELS 3 Zrotation Xrotation Yrotation
														JOINT Model48
														{
															OFFSET -4.96136 -1.52588e-005 0
															CHANNELS 3 Zrotation Xrotation Yrotation
															JOINT Model49
															{
																OFFSET -2.51965 0 0
																CHANNELS 3 Zrotation Xrotation Yrotation
																End Site
																{
																	OFFSET 0 0 0
																}
															}
														}
													}
													JOINT Model50
													{
														OFFSET -9.34247 -3.34118 0.239288
														CHANNELS 3 Zrotation Xrotation Yrotation
														JOINT Model51
														{
															OFFSET -3.28259 -2.28882e-005 0
															CHANNELS 3 Zrotation Xrotation Yrotation
															JOINT Model52
															{
																OFFSET -2.12921 0 0
																CHANNELS 3 Zrotation Xrotation Yrotation
																End Site
																{
																	OFFSET 0 0 0
																}
															}
														}
													}
												}
											}
										}
									}
								}
							}
						}
					}
				}
			}
		}
	}
	JOINT Model53
	{
		OFFSET 4.38025 -2.14632 -1.11517
		CHANNELS 3 Zrotation Xrotation Yrotation
		JOINT Model54
		{
			OFFSET 0 0 4.94998
			CHANNELS 3 Zrotation Xrotation Yrotation
			JOINT Model55
			{
				OFFSET 18.5642 0 0
				CHANNELS 3 Zrotation Xrotation Yrotation
				JOINT Model56
				{
					OFFSET 21.2884 0 0
					CHANNELS 3 Zrotation Xrotation Yrotation
					JOINT Model57
					{
						OFFSET 30.261 0 0
						CHANNELS 3 Zrotation Xrotation Yrotation
						JOINT Model58
						{
							OFFSET 11.7259 0 0
							CHANNELS 3 Zrotation Xrotation Yrotation
							JOINT Model59
							{
								OFFSET 10.682 0 0
								CHANNELS 3 Zrotation Xrotation Yrotation
								End Site
								{
									OFFSET 0 0 0
								}
							}
						}
					}
				}
			}
		}
	}
	JOINT Model60
	{
		OFFSET -4.38025 -2.14632 -1.11517
		CHANNELS 3 Zrotation Xrotation Yrotation
		JOINT Model61
		{
			OFFSET 0 0 -4.94998
			CHANNELS 3 Zrotation Xrotation Yrotation
			JOINT Model62
			{
				OFFSET -18.5642 0 0
				CHANNELS 3 Zrotation Xrotation Yrotation
				JOINT Model63
				{
					OFFSET -21.2884 0 0
					CHANNELS 3 Zrotation Xrotation Yrotation
					JOINT Model64
					{
						OFFSET -30.261 0 0
						CHANNELS 3 Zrotation Xrotation Yrotation
						JOINT Model65
						{
							OFFSET -11.7259 0 0
							CHANNELS 3 Zrotation Xrotation Yrotation
							JOINT Model66
							{
								OFFSET -10.682 0 0
								CHANNELS 3 Zrotation Xrotation Yrotation
								End Site
								{
									OFFSET 0 0 0
								}
							}
						}
					}
				}
			}
		}
	}
}
MOTION
Frames: 4
Frame Time: 0.033333
-611.56 134.84 -668.092 22.491 -59.2679 29.1267 -180 4.29621e-031 -90 4.83258 -2.0446 -0.143073 9.6693 -4.09442 -0.113261 9.6693 -4.09399 -0.113335 0.588479 14.2078 -0.253267 -12.8344 14.5842 -3.26722 120.092 75.5343 58.4939 24.6562 20.0771 -1.90446 -167.277 84.4999 48.8109 108.494 9.75552 21.1664 -1.39482e-005 42.2566 4.22689e-005 -79.1521 20.2834 0.637241 2.9993e-007 29.8636 6.68975e-007 17.3016 -2.51442 -16.4162 -72.0648 39.0385 39.3397 33.3638 2.10362 14.835 0.588947 0.308273 6.35287 -99.6409 81.413 100.35 -0.0181409 2.77721e-005 -0.117315 -0.124139 0.00241111 -0.799296 -79.8382 79.5773 80.5374 -0.000225775 -0.000220932 2.21869e-005 -0.000956225 0.000122882 -2.73308e-005 -66.7416 80.4058 67.2171 -0.00043713 1.59383e-005 -2.7328e-005 -0.000136601 -0.000109301 -5.46513e-005 -6.42159 81.2158 8.01779 -0.000218564 1.69179e-005 0.000212133 0.000901587 -0.000184788 -0.000218576 -59.9282 75.5373 58.5147 -7.61439 10.1624 5.48877 -167.277 84.4999 48.8109 -146.335 12.0606 13.4997 -1.64712e-005 34.0541 4.08034e-005 -102.305 16.0701 0.619653 3.47671e-006 23.8904 -8.42297e-007 -12.5826 1.48494 -13.4084 -72.0648 39.0385 39.3397 33.3638 2.10361 14.835 0.588946 0.308273 6.35287 -99.6409 81.413 100.35 -0.0181409 3.00771e-005 -0.117315 -0.124139 0.00241113 -0.799296 -79.8382 79.5773 80.5374 -0.000260652 -0.000218568 2.35798e-005 -0.000956235 0.000122995 -2.73079e-005 -66.7416 80.4058 67.2171 -0.000437138 1.48801e-005 -2.73114e-005 -0.000136612 -0.000109285 -5.46289e-005 -6.42159 81.2158 8.01779 -0.000218572 1.95786e-005 0.000212305 0.000901575 -0.000191245 -0.000218555 0.000811311 0.56661 89.91 -120.822 10.7379 -23.0934 -1.96695e-006 -4.11465 -1.01796e-007 115.27 4.42717 -0.00788926 -1.96968e-007 6.53166 -2.72515e-007 -70.0122 9.04894 -5.68942 -35.4973 -0.00734166 0.000397589 -180 -0.566579 -90.09 -73.2847 13.2206 -9.38851 -4.47011e-007 18.4227 -1.19676e-008 117.935 1.11078 -0.00738079 2.81601e-007 1.5592 -3.47535e-007 -69.1562 -23.4043 11.4032 -77.6271 -17.6069 -16.3418 
-610.809 135.011 -667.576 21.7467 -59.0198 28.6907 -180 4.29621e-031 -90 4.69053 -1.9976 -0.139548 9.38477 -4.00036 -0.115165 9.38477 -3.99993 -0.115237 3.38785 14.4747 -0.660476 -14.8037 14.9173 -3.39467 120.092 75.5343 58.4939 22.4182 22.32 -0.928733 -167.277 84.4999 48.8109 110.825 10.8101 20.025 -1.4494e-005 42.7995 4.26379e-005 -78.9703 20.277 0.636817 3.00082e-007 29.8523 6.689e-007 15.6084 -2.19854 -15.9393 -72.0648 39.0385 39.3397 33.3638 2.10362 14.835 0.588947 0.308273 6.35287 -99.6409 81.413 100.35 -0.0181409 2.77721e-005 -0.117315 -0.124139 0.00241111 -0.799296 -79.8382 79.5773 80.5374 -0.000225775 -0.000220932 2.21869e-005 -0.000956225 0.000122882 -2.73308e-005 -66.7416 80.4058 67.2171 -0.00043713 1.59383e-005 -2.7328e-005 -0.000136601 -0.000109301 -5.46513e-005 -6.42159 81.2158 8.01779 -0.000218564 1.69179e-005 0.000212133 0.000901587 -0.000184788 -0.000218576 -59.9282 75.5373 58.5147 -8.81145 10.3764 5.90371 -167.277 84.4999 48.8109 -145.463 11.6289 12.9071 -1.63201e-005 33.8779 4.0719e-005 -102.968 14.4969 0.613405 3.43964e-006 21.5438 -8.27975e-007 -12.0653 1.51768 -14.2874 -72.0648 39.0385 39.3397 33.3638 2.10361 14.835 0.588946 0.308273 6.35287 -99.6409 81.413 100.35 -0.0181409 3.00771e-005 -0.117315 -0.124139 0.00241113 -0.799296 -79.8382 79.5773 80.5374 -0.000260652 -0.000218568 2.35798e-005 -0.000956235 0.000122995 -2.73079e-005 -66.7416 80.4058 67.2171 -0.000437138 1.48801e-005 -2.73114e-005 -0.000136612 -0.000109285 -5.46289e-005 -6.42159 81.2158 8.01779 -0.000218572 1.95786e-005 0.000212305 0.000901575 -0.000191245 -0.000218555 0.000811311 0.56661 89.91 -120.828 10.7531 -23.0397 -1.96682e-006 -4.04468 -1.01787e-007 115.746 4.52264 -0.00787244 -1.9628e-007 6.67535 -2.72594e-007 -70.1715 8.39874 -5.34054 -35.8694 -1.06652 0.0506372 -180 -0.566579 -90.09 -72.3115 13.1677 -9.88037 -4.47019e-007 18.3864 -1.19651e-008 116.864 1.17475 -0.0074258 2.82176e-007 1.65398 -3.47552e-007 -69.5244 -23.7544 11.4816 -77.5776 -17.5427 -16.2714 
-609.953 135.199 -667.039 20.9393 -58.6359 28.0889 -180 4.29621e-031 -90 4.62102 -1.99589 -0.177952 9.24427 -4.00007 -0.194493 9.24427 -3.99963 -0.194563 4.02526 14.6623 -0.416508 -15.0581 15.2311 -3.69587 120.092 75.5343 58.4939 21.9275 23.1954 -0.659958 -167.277 84.4999 48.8109 111.857 11.1745 19.7539 -1.47352e-005 43.0364 4.28021e-005 -78.1603 20.7682 0.636991 2.902e-007 30.581 6.73873e-007 13.8503 -2.0981 -17.147 -72.0648 39.0385 39.3397 33.3638 2.10362 14.835 0.588947 0.308273 6.35287 -99.6409 81.413 100.35 -0.0181409 2.77721e-005 -0.117315 -0.124139 0.00241111 -0.799296 -79.8382 79.5773 80.5374 -0.000225775 -0.000220932 2.21869e-005 -0.000956225 0.000122882 -2.73308e-005 -66.7416 80.4058 67.2171 -0.00043713 1.59383e-005 -2.7328e-005 -0.000136601 -0.000109301 -5.46513e-005 -6.42159 81.2158 8.01779 -0.000218564 1.69179e-005 0.000212133 0.000901587 -0.000184788 -0.000218576 -59.9282 75.5373 58.5147 -8.67792 10.6916 5.98702 -167.277 84.4999 48.8109 -145.666 11.6941 12.9757 -1.63643e-005 33.9296 4.07436e-005 -102.967 13.7075 0.611267 3.42139e-006 20.3598 -8.2145e-007 -11.5722 1.46557 -14.3879 -72.0648 39.0385 39.3397 33.3638 2.10361 14.835 0.588946 0.308273 6.35287 -99.6409 81.413 100.35 -0.0181409 3.00771e-005 -0.117315 -0.124139 0.00241113 -0.799296 -79.8382 79.5773 80.5374 -0.000260652 -0.000218568 2.35798e-005 -0.000956235 0.000122995 -2.73079e-005 -66.7416 80.4058 67.2171 -0.000437138 1.48801e-005 -2.73114e-005 -0.000136612 -0.000109285 -5.46289e-005 -6.42159 81.2158 8.01779 -0.000218572 1.95786e-005 0.000212305 0.000901575 -0.000191245 -0.000218555 0.000811311 0.56661 89.91 -120.93 10.6767 -22.8599 -1.96681e-006 -4.03786 -1.01786e-007 116.267 4.56454 -0.0078558 -1.95976e-007 6.73875 -2.72629e-007 -70.0143 7.58299 -4.92449 -36.43 -2.67289 0.100763 -180 -0.566579 -90.09 -71.4247 13.1801 -10.3254 -4.47004e-007 18.4556 -1.19699e-008 115.784 0.979283 -0.00747044 2.8039e-007 1.35964 -3.47505e-007 -69.656 -23.9413 11.5419 -77.2337 -18.2811 -16.5684 
-609.076 135.412 -666.481 20.0957 -58.1356 27.4162 -180 4.29621e-031 -90 4.60709 -2.02543 -0.269584 9.21329 -4.06641 -0.375743 9.21329 -4.06598 -0.375813 2.76527 14.7323 0.394546 -14.0156 15.4388 -3.95081 120.092 75.5343 58.4939 22.9733 22.9762 -1.05317 -167.277 84.4999 48.8109 111.999 10.9157 20.1111 -1.45058e-005 42.8111 4.26459e-005 -77.5378 21.5556 0.638842 2.73946e-007 31.7562 6.82286e-007 13.345 -2.17485 -18.4322 -72.0648 39.0385 39.3397 33.3638 2.10362 14.835 0.588947 0.308273 6.35287 -99.6409 81.413 100.35 -0.0181409 2.77721e-005 -0.117315 -0.124139 0.00241111 -0.799296 -79.8382 79.5773 80.5374 -0.000225775 -0.000220932 2.21869e-005 -0.000956225 0.000122882 -2.73308e-005 -66.7416 80.4058 67.2171 -0.00043713 1.59383e-005 -2.7328e-005 -0.000136601 -0.000109301 -5.46513e-005 -6.42159 81.2158 8.01779 -0.000218564 1.69179e-005 0.000212133 0.000901587 -0.000184788 -0.000218576 -59.9282 75.5373 58.5147 -8.12414 10.8725 5.89854 -167.277 84.4999 48.8109 -146.689 12.0233 13.4309 -1.6505e-005 34.0934 4.08223e-005 -102.691 13.2721 0.610804 3.41136e-006 19.7014 -8.18015e-007 -11.2801 1.41948 -14.2996 -72.0648 39.0385 39.3397 33.3638 2.10361 14.835 0.588946 0.308273 6.35287 -99.6409 81.413 100.35 -0.0181409 3.00771e-005 -0.117315 -0.124139 0.00241113 -0.799296 -79.8382 79.5773 80.5374 -0.000260652 -0.000218568 2.35798e-005 -0.000956235 0.000122995 -2.73079e-005 -66.7416 80.4058 67.2171 -0.000437138 1.48801e-005 -2.73114e-005 -0.000136612 -0.000109285 -5.46289e-005 -6.42159 81.2158 8.01779 -0.000218572 1.95786e-005 0.000212305 0.000901575 -0.000191245 -0.000218555 0.000811311 0.56661 89.91 -121.083 10.5931 -22.8803 -1.96718e-006 -4.24712 -1.01813e-007 116.765 4.63845 -0.0078403 -1.95442e-007 6.85015 -2.72692e-007 -69.4733 6.80903 -4.54394 -38.449 -1.44846 -0.171322 -180 -0.566579 -90.09 -70.6856 13.1954 -10.8083 -4.46991e-007 18.5138 -1.1974e-008 114.682 0.732825 -0.00751533 2.78141e-007 0.988829 -3.47459e-007 -69.721 -24.1339 11.6246 -76.7687 -19.0955 -16.8307 
